PathFileType	4	(X/Y/Z)	8_coords_data.trc
DataRate	CameraRate	NumFrames	NumMarkers	Units	OrigDataRate	OrigDataStartFrame	OrigNumFrames
30.0	30.0	7	21	m	30.0	22	53
Frame#	Time	THUMB_TIP	THUMB_IP	THUMB_MCP	THUMB_CMC	INDEX_TIP	INDEX_DIP	INDEX_PIP	INDEX_MCP	MIDDLE_TIP	MIDDLE_DIP	MIDDLE_PIP	MIDDLE_MCP	RING_TIP	RING_DIP	RING_PIP	RING_MCP	PINKY_TIP	PINKY_DIP	PINKY_PIP	PINKY_MCP	WRIST
X1	Y1	Z1	X2	Y2	Z2	X3	Y3	Z3	X4	Y4	Z4	X5	Y5	Z5	X6	Y6	Z6	X7	Y7	Z7	X8	Y8	Z8	X9	Y9	Z9	X10	Y10	Z10	X11	Y11	Z11	X12	Y12	Z12	X13	Y13	Z13	X14	Y14	Z14	X15	Y15	Z15	X16	Y16	Z16	X17	Y17	Z17	X18	Y18	Z18	X19	Y19	Z19	X20	Y20	Z20	X21	Y21	Z21
20	0.6999999999999968	0.47974300716158724	-0.032167525522231455	-0.1716329777619776	0.48547709922004323	-0.027708007399166124	-0.14983314091912017	0.4826702918542153	-0.026217136336851077	-0.11886995090441582	0.4800626410319443	-0.025140494235341038	-0.07435106728213298	0.5014876918595376	-0.010579054030351864	-0.10204922731279556	0.5194186728216281	-0.012027016080313646	-0.10414286711921236	0.5340822820748994	0.004387941976588761	-0.1162893706761012	0.4950134461715857	0.02133647222065871	-0.11619201706391402	0.5046895096627855	-0.012104478339803548	-0.08835870010141655	0.5224600047801575	-0.008730393504795209	-0.08926702537884876	0.5406832805632347	0.011635192137977923	-0.09939444810927694	0.5009883540250494	0.03209014000873156	-0.09796062952492668	0.5091716935236671	-0.002836891698614341	-0.07444990803060389	0.5270907506106486	-0.0008677379453765344	-0.07462261185109045	0.5441474879069825	0.016446308519339925	-0.08005137661128148	0.5088824550395792	0.03619947516341415	-0.07909707142298858	0.5110112988377905	-0.008309207406163477	-0.05957928373520843	0.5280711224781922	-0.006912933904510976	-0.05946598030642039	0.5395550098106084	0.010593662029507511	-0.06103169086056981	0.5108845720569195	0.03228011720768109	-0.0581013134417174	0.4622830810018608	-0.023011742144276925	-0.051989820119430985
21	0.7333333333333302	0.4797782647317467	-0.032348612618478656	-0.17151252680011747	0.48554251739451615	-0.027834180560309285	-0.14973195531009614	0.482780328135233	-0.026292759278611078	-0.11876722810431845	0.48019201804339906	-0.025118413416408636	-0.07424968591402631	0.5020373135922005	-0.010645870111941513	-0.10170612060903528	0.5199593667920654	-0.011930273646642009	-0.10397555152035623	0.5343108752626321	0.0045971278314919095	-0.11634038221065796	0.49516159303847274	0.021357581668345116	-0.11610167210226699	0.5049452412239909	-0.0116674657206004	-0.08798908745905754	0.5227767823649008	-0.008693917854405986	-0.08908186082416605	0.5408069338209442	0.011769205798560556	-0.09935725662362474	0.5010643413037864	0.032126311494523385	-0.09785309283648733	0.5093785234376094	-0.0025029162032746965	-0.07405067272573346	0.5272967020220533	-0.0005474409055888918	-0.074389778278795	0.5442657119067047	0.016814337424847836	-0.07993967338946031	0.5088471316828496	0.0362896048486715	-0.07896040442901289	0.5110510537404881	-0.008171601419964758	-0.05934962608315836	0.5281065946748369	-0.006722131993820546	-0.05926266736060748	0.5395268648782114	0.01082848088848598	-0.060800664414354	0.5107593617947102	0.032402025684790337	-0.05799061419014173	0.4622830810018609	-0.023011742144276925	-0.051989820119430985
22	0.7666666666666633	0.479858692720033	-0.03251979612028966	-0.17141576632794445	0.48564046180407705	-0.027988717523715567	-0.14964329579723842	0.48289576299666714	-0.026418407911644848	-0.11867846484050878	0.48029308615807376	-0.025159219158385704	-0.07416407933472519	0.5036846840572612	-0.01131735447953186	-0.10144952776130106	0.5215658442338921	-0.011737508826865417	-0.10429339503353452	0.534964369115178	0.00534551926128779	-0.11696854849788879	0.49545390209093254	0.02121118804779032	-0.11605222787549613	0.5066904938992512	-0.012200993284041894	-0.08770706674144202	0.524362522728242	-0.008585175463248551	-0.08932733170562263	0.5414510015624919	0.012585094688843168	-0.09977783900521556	0.5012752687299971	0.03203004915252439	-0.09778983541433214	0.5109420734214976	-0.003068443708825974	-0.07369712203806797	0.5287294993068661	-0.00024334821559923725	-0.0744885232174172	0.5448741794904872	0.01781987656999051	-0.08025473437500119	0.5089218875771724	0.03626629016235283	-0.07888237663763589	0.5123150968990633	-0.008645043318756818	-0.059240275865206554	0.5292833334011788	-0.006392210307874624	-0.059301049489043856	0.5400726855954859	0.011553550078881702	-0.06083453648550877	0.5107780904792146	0.03239243751849896	-0.05792749017478349	0.462283081001861	-0.023011742144276925	-0.051989820119430985
23	0.7999999999999965	0.4801743459119011	-0.032692094051498644	-0.17135143779831136	0.485894244067805	-0.02820302666321861	-0.14955393704548264	0.48307413452696313	-0.026641236917371747	-0.11859545202170571	0.4803689103548091	-0.025280430683427668	-0.07409017178922031	0.5066470483072455	-0.01255863430336257	-0.10151780097422777	0.5243387567001482	-0.011406116477396089	-0.10521579459257324	0.5360733760532632	0.006658530029728493	-0.11817639211776965	0.49595710724382225	0.020797187225450764	-0.11607414486529935	0.5101334762975753	-0.013400384328263293	-0.08784401651334894	0.5273646296048413	-0.00831279953936448	-0.09012520846433886	0.5426514977941373	0.014116243007146867	-0.10073931518181042	0.5016926004593034	0.031720224236231	-0.0978039284950874	0.5139865163931827	-0.004272648461380202	-0.07376265546916333	0.5314266122452606	0.00010146844828939905	-0.07507038553721271	0.5460009179496679	0.019397148243389006	-0.08102406788341379	0.5092105258245394	0.0360305795195186	-0.07889878078243978	0.5151040090710237	-0.009648624399329342	-0.05943947981593195	0.5318053500211953	-0.00590428278657229	-0.05965188592011514	0.5412732809768359	0.012775053934284464	-0.06115277968320196	0.5110309227201077	0.0321671879621831	-0.05795459958888008	0.4622830810018609	-0.023011742144276925	-0.05198982011943096
24	0.8333333333333297	0.4807995268394998	-0.0328371682655374	-0.1713164559716736	0.4863563196167925	-0.0284669208821976	-0.14945271905781005	0.48332222573993755	-0.026968545744713524	-0.11851133663404298	0.4804239154859953	-0.025496404746208734	-0.07402175809532885	0.5111399516147073	-0.014202841115282472	-0.10204653184844684	0.5283162614006867	-0.01090455304533533	-0.10674713584620235	0.5375913622174735	0.008426086909348762	-0.11987377657339562	0.4967929292947938	0.02005130531015542	-0.11613502515251273	0.5153695625798037	-0.014807540097081962	-0.08860614472791903	0.5317975404270022	-0.007763273492008338	-0.09152159526747558	0.5443545687693156	0.01627477473248795	-0.10219412199581526	0.5024385436638373	0.03112274988380903	-0.09786602838977221	0.5185960125706143	-0.005681087700682319	-0.07437930005994658	0.5353675397403331	0.0006867085816193441	-0.0761589199357878	0.5476166103526542	0.021512510446531907	-0.08219433415668276	0.509820179792792	0.03550517434055711	-0.07897625583532794	0.5195072241075944	-0.010772784310195238	-0.059924923617716674	0.5356548481029421	-0.005102700031493379	-0.06024800809164291	0.5431166783238207	0.014471301690748728	-0.061659236397922534	0.5116053210158439	0.03164381037830177	-0.058050530676347495	0.462283081001861	-0.023011742144276925	-0.051989820119430985
25	0.8666666666666629	0.48177141054537354	-0.032973812867144625	-0.17129740972336402	0.4870467580751494	-0.028824636205179277	-0.14932117161335323	0.4836371400574563	-0.027439022213613273	-0.11841365507061236	0.48046539621540874	-0.025827997990223173	-0.07394754840551199	0.517262718375502	-0.015940837037669242	-0.10312920443170592	0.5334088735100185	-0.010090275664795256	-0.1088800831466813	0.539304339058087	0.010557532144545023	-0.12195377243624633	0.49795557864188433	0.01897910072733855	-0.11620979396755576	0.5224046107778773	-0.01605414192911303	-0.09012769132021212	0.5375522189083283	-0.0067468840457928225	-0.09358093886703933	0.5463155097839898	0.01899549540836598	-0.1040663660432039	0.5035017883433137	0.030222492492583797	-0.09797639774516137	0.5247821601577306	-0.006965306239665292	-0.07568092535461379	0.540458485744211	0.0016803952179136328	-0.07780334435497135	0.5495140823507307	0.024112809488203713	-0.08371629109125081	0.5107567360376819	0.034667496502923334	-0.07911330045561857	0.5255260604733881	-0.011650331176099482	-0.060849353741237455	0.5407019265272865	-0.0037389619888100745	-0.06117079906557635	0.5454269601022379	0.016683204471672708	-0.06236293738637505	0.5124992884996536	0.03080510001118486	-0.05821276146197432	0.462283081001861	-0.023011742144276925	-0.05198982011943096
26	0.8999999999999961	0.4830500798737668	-0.03287656735820821	-0.17129674222459418	0.4879279353084023	-0.029089576085357338	-0.14916384310454783	0.4839867874979078	-0.027941965829617832	-0.11830982643512927	0.4804874573784492	-0.026246791076940723	-0.07387143007260355	0.5252570844128983	-0.01745153332549576	-0.10490367778995652	0.5395129866172116	-0.008596438771041437	-0.1117122424531383	0.5408994533373478	0.013117022307812864	-0.12430641376414706	0.49932821811412476	0.017682406423590757	-0.11626739865712862	0.5315410768111127	-0.016852070026354027	-0.09249202991713495	0.5446364445621519	-0.004949710809964092	-0.09634497535524553	0.5482039511761523	0.02224776557683028	-0.10619280378332197	0.5048024089240309	0.029089009513119768	-0.09809024662267768	0.5328487094991774	-0.007888848290787731	-0.07769727003141144	0.5467109205720979	0.0034051314858365433	-0.07999620999909313	0.5513972168902215	0.027243563154867867	-0.08546866661195657	0.5119467295758023	0.03356879520476219	-0.07927420746124314	0.533320884930793	-0.011990372653341685	-0.062332645295061745	0.5468352875518419	-0.0014858822221113233	-0.06246149628020911	0.5479048314817607	0.019468103875958875	-0.06323516376941951	0.5136536091480419	0.029682294378951646	-0.05839703065687163	0.462283081001861	-0.023011742144276925	-0.05198982011943096
